<svg id="Layer_1" data-name="Layer 1" xmlns="http://www.w3.org/2000/svg" viewBox="0 0 512 512"><defs><style>.cls-1{fill:#fff;}.cls-1,.cls-2{stroke:#fff;stroke-miterlimit:10;}.cls-2{fill:none;stroke-width:38px;}</style></defs><path class="cls-1" d="M280.84,380.94V268.48l39.8,40.14a18.46,18.46,0,1,0,26.22-26l-71.36-72,0,0q-.63-.63-1.32-1.2h0a18.39,18.39,0,0,0-11.74-4.21h0a18.79,18.79,0,0,0-3.46.33l-.19,0c-.55.11-1.08.25-1.61.41l-.14,0a18.48,18.48,0,0,0-4.81,2.28l-.09.06c-.31.2-.6.43-.89.66a18.78,18.78,0,0,0-1.92,1.65l-71.37,72a18.46,18.46,0,1,0,26.22,26l39.8-40.15V380.94"/><path class="cls-2" d="M366.87,411.32a104.88,104.88,0,0,0,0-209.76c-3.3,0-6.56.16-9.78.46a104.89,104.89,0,1,0-204.84,44.32,84.74,84.74,0,1,0-27.25,165Z"/></svg>