<svg id="Layer_1" data-name="Layer 1" xmlns="http://www.w3.org/2000/svg" viewBox="0 0 512 512"><defs><style>.cls-1,.cls-2{stroke:#000;stroke-miterlimit:10;stroke-width:28px;}.cls-1{opacity:0.3;}.cls-2{fill:none;}</style></defs><path class="cls-1" d="M136.57,314.08A176.26,176.26,0,0,1,366.38,146.24a176.19,176.19,0,1,0-222.1,219.52A176,176,0,0,1,136.57,314.08Z"/><path class="cls-2" d="M367.05,146.46A176.27,176.27,0,0,1,145,366a176.19,176.19,0,1,0,222.1-219.53Z"/><path class="cls-2" d="M137,314.3A176.26,176.26,0,0,1,366.78,146.46,176.19,176.19,0,1,0,144.68,366,176.13,176.13,0,0,1,137,314.3Z"/><path class="cls-2" d="M136.71,314.08a176,176,0,0,0,7.71,51.68,176.28,176.28,0,0,0,222.1-219.52A176.26,176.26,0,0,0,136.71,314.08Z"/></svg>