<svg id="Layer_1" data-name="Layer 1" xmlns="http://www.w3.org/2000/svg" viewBox="0 0 512 512"><defs><style>.cls-1{fill:none;stroke:#000;stroke-miterlimit:10;stroke-width:38px;}</style></defs><rect class="cls-1" x="53.58" y="53.58" width="404.84" height="404.84"/><line class="cls-1" x1="129.16" y1="53.58" x2="129.16" y2="458.42"/><path d="M116.71,274.46H332l-40.14,39.8a18.46,18.46,0,1,0,26,26.22l72-71.36,0,0q.63-.63,1.2-1.32h0A18.34,18.34,0,0,0,395.29,256h0a18.71,18.71,0,0,0-.34-3.46l0-.19c-.11-.55-.25-1.08-.41-1.62l0-.13a18.48,18.48,0,0,0-2.28-4.81l-.05-.09c-.21-.31-.44-.6-.67-.89a18.78,18.78,0,0,0-1.65-1.92l-72-71.37a18.46,18.46,0,0,0-26,26.22L332,237.54H116.71"/></svg>