<svg id="Layer_1" data-name="Layer 1" xmlns="http://www.w3.org/2000/svg" viewBox="0 0 512 512"><defs><style>.cls-1{fill:none;stroke:#000;stroke-miterlimit:10;stroke-width:38px;}</style></defs><path class="cls-1" d="M106.69,262.12,298.25,72.53,464.57,236.35a27.42,27.42,0,0,1,8.18,19.53v16.34a27.39,27.39,0,0,1-8.27,19.61L348,405.52a35.52,35.52,0,0,1-24.82,10.1H304.75a35.51,35.51,0,0,1-25.5-10.79L161.14,283.11Z"/><path class="cls-1" d="M415.61,189.5V73A34.11,34.11,0,0,0,381.5,38.88H368.7A34.11,34.11,0,0,0,334.59,73v36.92"/><path d="M91.24,293.1l58,96.18c27.59,45.73-5.34,104.05-58.74,104.05h0c-53.73,0-86.6-59-58.36-104.67Z"/></svg>