<svg id="Layer_1" data-name="Layer 1" xmlns="http://www.w3.org/2000/svg" viewBox="0 0 512 512"><defs><style>.cls-1{fill:none;stroke:#000;stroke-miterlimit:10;stroke-width:28px;}</style></defs><circle class="cls-1" cx="256" cy="256" r="214.01"/><polyline class="cls-1" points="178.04 56.64 192.84 83.26 192.84 107.45 206.19 119.97 251.69 92.44 272.2 42.6"/><polyline class="cls-1" points="137.86 77.55 166.14 104.95 131.94 115.8 172.82 155.84 95.22 220.09 76.03 230.1 94.39 277.66 41.99 256"/><polygon class="cls-1" points="126.93 271.02 102.73 321.04 135.27 356.08 160.3 437.85 186.17 447.86 186.17 397.8 225.12 324.38 172.82 296.85 126.93 271.02"/><polyline class="cls-1" points="465.43 211.8 418.11 261.81 439.8 271.02 415.61 319.79 389.74 390.29 347.19 399.47 347.19 346.91 336.35 300.19 283.78 307.69 256 277.66 256 240.11 297.13 197.56 368.89 220.92 392.25 190.05 307.14 170.03 302.97 145.83 339.68 130.81 323.83 101.61 367.27 73.16"/></svg>