<svg id="Layer_1" data-name="Layer 1" xmlns="http://www.w3.org/2000/svg" viewBox="0 0 512 512"><defs><style>.cls-1{fill:none;}.cls-1,.cls-2{stroke:#000;stroke-miterlimit:10;stroke-width:38px;}</style></defs><path class="cls-1" d="M41.53,171.63l-.09-58.75a2,2,0,0,1,2-2H178.78a2,2,0,0,1,1.38.55l63.7,60.2L424,173.45a2,2,0,0,1,2,2V415.06a20,20,0,0,1-20.1,20L43.43,433.33a2,2,0,0,1-2-2Z"/><path class="cls-2" d="M475.91,269.2,423.36,431.58a5,5,0,0,1-4.75,3.46H48.32a5,5,0,0,1-4.76-6.54L96.1,266.12c.67-2.06,2.59-3.46,7.32-3.46H473.71C474.54,262.66,477,266,475.91,269.2Z"/></svg>